<svg xmlns="http://www.w3.org/2000/svg" width="64" height="64" viewBox="0 0 64 64" role="img" aria-label="Gatopedia">
  <defs>
    <linearGradient id="bg" x1="8" y1="6" x2="58" y2="58" gradientUnits="userSpaceOnUse">
      <stop stop-color="#745cdf"/>
      <stop offset="0.55" stop-color="#9b4bc2"/>
      <stop offset="1" stop-color="#ff7593"/>
    </linearGradient>
    <filter id="glow" x="-30%" y="-30%" width="160%" height="160%">
      <feGaussianBlur stdDeviation="2.2" result="blur"/>
      <feMerge>
        <feMergeNode in="blur"/>
        <feMergeNode in="SourceGraphic"/>
      </feMerge>
    </filter>
  </defs>
  <rect width="64" height="64" rx="16" fill="url(#bg)"/>
  <circle cx="32" cy="35" r="22" fill="#ffffff" opacity="0.16"/>
  <path d="M19 28 17 12l13 13h4l13-13-2 16c5 4 8 10 8 17 0 11-9 16-21 16S11 56 11 45c0-7 3-13 8-17Z" fill="#1c1727"/>
  <ellipse cx="25" cy="39" rx="4" ry="7" fill="#ffd85a" filter="url(#glow)"/>
  <ellipse cx="39" cy="39" rx="4" ry="7" fill="#ffd85a" filter="url(#glow)"/>
  <ellipse cx="32" cy="48" rx="4.6" ry="3.4" fill="#ff7593"/>
  <path d="M12 46h13M12 51h14M39 46h13M38 51h14" stroke="#fff8ff" stroke-width="2.2" stroke-linecap="round" opacity="0.9"/>
</svg>
