<svg xmlns="http://www.w3.org/2000/svg" width="1200" height="630" viewBox="0 0 1200 630" role="img" aria-label="Gatopedia: Trivial Felino">
  <defs>
    <linearGradient id="bg" x1="70" y1="40" x2="1130" y2="600" gradientUnits="userSpaceOnUse">
      <stop stop-color="#17141f"/>
      <stop offset="0.46" stop-color="#745cdf"/>
      <stop offset="1" stop-color="#ff7593"/>
    </linearGradient>
    <filter id="shadow" x="-20%" y="-20%" width="140%" height="140%">
      <feDropShadow dx="0" dy="22" stdDeviation="20" flood-color="#140921" flood-opacity="0.42"/>
    </filter>
    <filter id="eyeGlow" x="-40%" y="-40%" width="180%" height="180%">
      <feGaussianBlur stdDeviation="7" result="blur"/>
      <feMerge>
        <feMergeNode in="blur"/>
        <feMergeNode in="SourceGraphic"/>
      </feMerge>
    </filter>
  </defs>
  <rect width="1200" height="630" fill="url(#bg)"/>
  <rect x="70" y="70" width="1060" height="490" rx="42" fill="#ffffff" opacity="0.11" stroke="#ffffff" stroke-opacity="0.22"/>
  <circle cx="335" cy="315" r="176" fill="#ffffff" opacity="0.17"/>
  <path d="M245 265 232 138l103 101h40l103-101-13 127c43 34 67 82 67 137 0 89-72 132-177 132s-177-43-177-132c0-55 24-103 67-137Z" fill="#1c1727" filter="url(#shadow)"/>
  <ellipse cx="303" cy="355" rx="23" ry="40" fill="#ffd85a" filter="url(#eyeGlow)"/>
  <ellipse cx="407" cy="355" rx="23" ry="40" fill="#ffd85a" filter="url(#eyeGlow)"/>
  <ellipse cx="355" cy="430" rx="28" ry="19" fill="#ff7593"/>
  <path d="M182 407h103M178 446h109M425 407h103M423 446h109" stroke="#fff8ff" stroke-width="12" stroke-linecap="round" opacity="0.9"/>
  <text x="575" y="196" fill="#ffd85a" font-family="Arial, Helvetica, sans-serif" font-size="27" font-weight="800">JUEGO DE PREGUNTAS SOBRE GATOS</text>
  <text x="575" y="302" fill="#fff8ff" font-family="Arial, Helvetica, sans-serif" font-size="76" font-weight="900">Gatopedia:</text>
  <text x="575" y="382" fill="#fff8ff" font-family="Arial, Helvetica, sans-serif" font-size="76" font-weight="900">Trivial Felino</text>
  <text x="575" y="450" fill="#ded0e8" font-family="Arial, Helvetica, sans-serif" font-size="29" font-weight="700">Razas, cuidados, adopcion, veterinario,</text>
  <text x="575" y="492" fill="#ded0e8" font-family="Arial, Helvetica, sans-serif" font-size="29" font-weight="700">alimentacion, convivencia y juegos.</text>
</svg>
